<svg width="391" height="360" viewBox="0 0 391 360" fill="none" xmlns="http://www.w3.org/2000/svg">
<g clip-path="url(#clip0_7_79)">
<path opacity="0.1" d="M187.768 98.4761C172.486 93.3369 156.329 89.0285 139.816 89.4726C115.54 90.1276 92.1986 101.883 80.6867 119.257C70.9559 133.98 69.657 151.284 65.4093 167.655C60.1758 187.825 50.242 206.967 39.6396 225.686C33.945 235.74 27.9373 246.005 26.9473 257.053C25.5892 272.392 34.5331 287.726 48.6343 298.004C62.7355 308.283 81.499 313.76 100.351 315.04C110.383 315.717 120.866 315.194 129.798 311.439C139.245 307.482 146.154 300.242 155.639 296.329C164.431 292.707 174.678 292.241 184.54 292.773C197.311 293.444 209.961 295.696 222.219 299.481C235.965 303.754 248.737 309.905 262.454 314.24C276.17 318.574 291.502 321.027 305.557 317.541C318.753 314.27 329.22 306.208 338.658 298.039C353.869 284.91 368.012 270.5 380.945 254.956C389.47 244.673 397.411 233.815 401.219 221.8C408.492 198.825 398.748 172.812 376.947 156.99C358.886 143.876 334.588 138.086 310.794 134.569C289.095 131.329 263.989 131.008 244.046 122.757C225.024 114.865 207.72 105.185 187.768 98.4761Z" fill="#6C63FF"/>
<path opacity="0.1" d="M369.96 217.579C375.36 217.579 379.738 216.955 379.738 216.186C379.738 215.416 375.36 214.792 369.96 214.792C364.561 214.792 360.183 215.416 360.183 216.186C360.183 216.955 364.561 217.579 369.96 217.579Z" fill="#6C63FF"/>
<path opacity="0.1" d="M332.505 221.527C337.905 221.527 342.283 220.903 342.283 220.133C342.283 219.364 337.905 218.74 332.505 218.74C327.105 218.74 322.728 219.364 322.728 220.133C322.728 220.903 327.105 221.527 332.505 221.527Z" fill="#6C63FF"/>
<path opacity="0.1" d="M288.387 216.186C293.787 216.186 298.164 215.562 298.164 214.792C298.164 214.022 293.787 213.398 288.387 213.398C282.987 213.398 278.609 214.022 278.609 214.792C278.609 215.562 282.987 216.186 288.387 216.186Z" fill="#6C63FF"/>
<path opacity="0.1" d="M347.495 232.364C351.334 232.364 354.446 231.919 354.446 231.37C354.446 230.822 351.334 230.377 347.495 230.377C343.656 230.377 340.544 230.822 340.544 231.37C340.544 231.919 343.656 232.364 347.495 232.364Z" fill="#6C63FF"/>
<path opacity="0.1" d="M308.623 231.37C312.462 231.37 315.574 230.925 315.574 230.377C315.574 229.828 312.462 229.383 308.623 229.383C304.784 229.383 301.671 229.828 301.671 230.377C301.671 230.925 304.784 231.37 308.623 231.37Z" fill="#6C63FF"/>
<path d="M332.294 219.817C332.294 219.817 346.01 173.102 330.149 154.392C318.302 140.394 304.815 142.082 298.786 143.801C297.225 144.233 295.774 145.012 294.532 146.085C293.29 147.157 292.287 148.498 291.594 150.013C289.478 154.739 289.868 162.411 304.751 171.366C329.675 186.361 331.227 206.931 331.227 206.931L332.294 219.817Z" fill="#6C63FF"/>
<path d="M300.931 150.427C300.931 150.427 341.36 163.562 332.294 219.817" stroke="#565987" stroke-miterlimit="10"/>
<path d="M324.539 155.135C324.539 155.135 318.971 159.034 320.731 164.89" stroke="#565987" stroke-miterlimit="10"/>
<path d="M304.988 158.603C304.988 158.603 308.373 155.007 312.532 156.99" stroke="#565987" stroke-miterlimit="10"/>
<path d="M320.968 176.694C320.968 176.694 326.942 173.546 328.486 177.49" stroke="#565987" stroke-miterlimit="10"/>
<path d="M335.755 183.262C335.755 183.262 331.266 182.893 331.185 185.122" stroke="#565987" stroke-miterlimit="10"/>
<path d="M332.848 220.191C332.848 220.191 316.771 186.238 312.375 186.981C310.26 187.333 309.312 189.478 308.876 191.628C308.335 194.411 308.641 197.3 309.752 199.893C312.032 205.327 318.154 215.645 332.848 220.191Z" fill="#6C63FF"/>
<path d="M312.494 193.426C312.494 193.426 329.353 218.828 332.611 219.944" stroke="#565987" stroke-miterlimit="10"/>
<path d="M310.945 197.392H314.88" stroke="#565987" stroke-miterlimit="10"/>
<path d="M315.658 206.685L321.827 206.958" stroke="#565987" stroke-miterlimit="10"/>
<path d="M319.411 199.251L318.742 202.588" stroke="#565987" stroke-miterlimit="10"/>
<path d="M325.969 209.411L325.85 212.444" stroke="#565987" stroke-miterlimit="10"/>
<path d="M332.374 220.191C332.374 220.191 348.451 186.238 352.847 186.981C354.962 187.333 355.91 189.478 356.346 191.628C356.887 194.411 356.581 197.3 355.47 199.893C353.189 205.327 347.068 215.645 332.374 220.191Z" fill="#6C63FF"/>
<path d="M352.728 193.426C352.728 193.426 335.869 218.828 332.611 219.944" stroke="#565987" stroke-miterlimit="10"/>
<path d="M354.277 197.392H350.342" stroke="#565987" stroke-miterlimit="10"/>
<path d="M349.564 206.685L343.395 206.958" stroke="#565987" stroke-miterlimit="10"/>
<path d="M345.811 199.251L346.479 202.588" stroke="#565987" stroke-miterlimit="10"/>
<path d="M339.249 209.411L339.372 212.444" stroke="#565987" stroke-miterlimit="10"/>
<path d="M304.794 228.121C304.357 227.75 304.039 227.25 303.88 226.688C303.809 226.405 303.834 226.105 303.95 225.839C304.066 225.572 304.267 225.356 304.519 225.224C305.107 224.991 305.733 225.413 306.211 225.844C306.689 226.275 307.23 226.754 307.852 226.666C307.533 226.364 307.294 225.982 307.159 225.556C307.024 225.13 306.998 224.675 307.082 224.235C307.108 224.053 307.181 223.881 307.294 223.738C307.62 223.378 308.212 223.536 308.601 223.817C309.841 224.727 310.188 226.477 310.196 228.051C310.257 227.466 310.257 226.877 310.196 226.292C310.172 226.001 310.217 225.708 310.327 225.439C310.437 225.17 310.608 224.934 310.827 224.749C311.12 224.582 311.452 224.5 311.787 224.512C312.064 224.471 312.346 224.491 312.615 224.571C312.884 224.65 313.134 224.787 313.348 224.974C313.818 225.501 313.695 226.385 313.285 226.965C312.823 227.496 312.278 227.942 311.673 228.284C311.209 228.569 310.814 228.96 310.518 229.427C310.485 229.492 310.456 229.56 310.433 229.629H306.939C306.162 229.229 305.44 228.722 304.794 228.121Z" fill="#6C63FF"/>
<path d="M366 214.445C365.562 214.075 365.244 213.575 365.086 213.011C365.016 212.729 365.041 212.43 365.157 212.164C365.274 211.899 365.474 211.682 365.725 211.552C366.313 211.319 366.94 211.741 367.418 212.167C367.896 212.594 368.441 213.082 369.063 212.989C368.743 212.689 368.503 212.306 368.367 211.88C368.231 211.454 368.204 210.998 368.289 210.558C368.315 210.376 368.39 210.205 368.505 210.066C368.831 209.705 369.419 209.859 369.808 210.145C371.048 211.051 371.395 212.783 371.403 214.379C371.465 213.794 371.465 213.204 371.403 212.62C371.379 212.329 371.424 212.036 371.534 211.767C371.643 211.498 371.815 211.261 372.033 211.077C372.329 210.914 372.66 210.834 372.994 210.844C373.269 210.799 373.551 210.815 373.82 210.891C374.089 210.966 374.339 211.1 374.555 211.284C375.029 211.807 374.906 212.69 374.492 213.271C374.033 213.812 373.488 214.268 372.88 214.616C372.416 214.901 372.021 215.292 371.725 215.759C371.69 215.823 371.661 215.891 371.64 215.961H368.145C367.369 215.557 366.647 215.047 366 214.445Z" fill="#6C63FF"/>
<path d="M345.599 228.121C345.163 227.75 344.845 227.25 344.686 226.688C344.615 226.405 344.64 226.105 344.756 225.839C344.872 225.572 345.073 225.356 345.324 225.224C345.913 224.991 346.539 225.413 347.017 225.844C347.495 226.275 348.036 226.754 348.658 226.666C348.339 226.365 348.099 225.982 347.964 225.556C347.828 225.13 347.801 224.675 347.884 224.235C347.913 224.053 347.988 223.882 348.1 223.738C348.426 223.378 349.018 223.536 349.407 223.817C350.647 224.727 350.994 226.477 351.002 228.051C351.07 227.467 351.077 226.878 351.023 226.292C350.999 226.001 351.044 225.708 351.154 225.439C351.264 225.17 351.435 224.934 351.654 224.749C351.948 224.582 352.279 224.5 352.614 224.512C352.891 224.471 353.173 224.491 353.442 224.571C353.711 224.65 353.961 224.787 354.175 224.974C354.645 225.501 354.522 226.385 354.112 226.965C353.65 227.496 353.105 227.942 352.5 228.284C352.036 228.569 351.641 228.96 351.345 229.427C351.312 229.492 351.283 229.56 351.26 229.629H347.766C346.981 229.231 346.252 228.724 345.599 228.121Z" fill="#6C63FF"/>
<path d="M287.752 200.478C287.752 200.478 286.441 202.258 288.357 204.944C290.274 207.63 291.847 209.903 291.213 211.578C291.213 211.578 288.323 206.589 285.971 206.518C283.619 206.448 285.163 203.48 287.752 200.478Z" fill="#6C63FF"/>
<path opacity="0.1" d="M287.752 200.478C287.636 200.649 287.545 200.837 287.481 201.036C285.188 203.837 283.966 206.452 286.17 206.518C288.226 206.58 290.692 210.396 291.281 211.354C291.281 211.429 291.238 211.504 291.213 211.574C291.213 211.574 288.323 206.584 285.971 206.514C283.619 206.443 285.163 203.48 287.752 200.478Z" fill="black"/>
<path d="M285.315 202.746C285.315 203.375 285.383 203.88 285.467 203.88C285.552 203.88 285.615 203.375 285.615 202.746C285.615 202.118 285.531 202.416 285.45 202.416C285.37 202.416 285.315 202.122 285.315 202.746Z" fill="#FFD037"/>
<path d="M284.478 203.494C285.006 203.797 285.472 203.977 285.51 203.902C285.548 203.828 285.155 203.52 284.626 203.221C284.097 202.922 284.304 203.137 284.262 203.221C284.22 203.304 283.949 203.195 284.478 203.494Z" fill="#FFD037"/>
<path d="M294.669 200.478C294.669 200.478 295.981 202.258 294.064 204.944C292.148 207.63 290.574 209.903 291.213 211.578C291.213 211.578 294.098 206.589 296.451 206.518C298.803 206.448 297.259 203.48 294.669 200.478Z" fill="#6C63FF"/>
<path opacity="0.1" d="M294.67 200.478C294.786 200.649 294.877 200.837 294.94 201.036C297.233 203.837 298.456 206.452 296.252 206.518C294.196 206.58 291.729 210.396 291.141 211.354C291.161 211.429 291.185 211.502 291.213 211.574C291.213 211.574 294.098 206.584 296.451 206.514C298.803 206.443 297.259 203.48 294.67 200.478Z" fill="black"/>
<path d="M297.106 202.746C297.106 203.375 297.038 203.88 296.954 203.88C296.869 203.88 296.806 203.375 296.806 202.746C296.806 202.118 296.89 202.416 296.971 202.416C297.051 202.416 297.106 202.122 297.106 202.746Z" fill="#FFD037"/>
<path d="M297.944 203.494C297.415 203.797 296.95 203.977 296.912 203.902C296.874 203.828 297.267 203.52 297.796 203.221C298.325 202.922 298.117 203.137 298.16 203.221C298.202 203.304 298.473 203.195 297.944 203.494Z" fill="#FFD037"/>
<path d="M296.687 211.345C296.687 211.345 293.028 211.231 291.924 210.413C290.819 209.595 286.288 208.62 286 209.93C285.713 211.24 280.5 216.445 284.63 216.48C288.759 216.515 294.242 215.812 295.342 215.113C296.442 214.414 296.687 211.345 296.687 211.345Z" fill="#A8A8A8"/>
<path opacity="0.2" d="M284.571 216.023C288.704 216.058 294.179 215.355 295.283 214.656C296.129 214.128 296.455 212.22 296.552 211.341H296.671C296.671 211.341 296.442 214.418 295.338 215.108C294.234 215.799 288.763 216.511 284.626 216.476C283.432 216.476 283.022 216.036 283.043 215.372C283.225 215.772 283.682 216.018 284.571 216.023Z" fill="black"/>
<path d="M190.453 152.919C189.911 152.972 189.361 152.945 188.824 153.033C187.922 153.22 187.061 153.579 186.285 154.093C182.435 156.37 178.801 159.5 177.206 163.791C177.075 164.055 177.033 164.357 177.088 164.648C177.182 164.889 177.337 165.098 177.536 165.255L179.034 166.671C179.223 166.875 179.449 167.039 179.698 167.154C180.102 167.264 180.528 167.25 180.925 167.115C185.042 166.134 189.416 165.004 192.306 161.804C193.677 160.287 194.942 158.199 196.96 158.142C197.806 158.142 198.597 158.48 199.43 158.581C200.264 158.683 201.267 158.313 201.465 157.469C201.53 157.049 201.483 156.619 201.33 156.225L200.086 151.921C199.748 150.743 196.334 150.681 195.195 150.892C193.461 151.205 192.293 152.743 190.453 152.919Z" fill="#65617D"/>
<path d="M205.108 177.164C205.049 178.637 205.163 180.128 204.93 181.587C204.726 182.738 204.371 183.855 203.877 184.906C203.116 186.597 202.149 188.18 201 189.615C199.929 190.934 198.648 192.173 197.061 192.692C195.474 193.211 193.524 192.837 192.534 191.448C191.726 190.318 191.688 188.81 191.747 187.399C191.891 183.93 192.416 180.413 193.913 177.31C194.556 175.991 195.373 174.733 196.029 173.401C197.399 170.636 198.182 167.356 200.547 165.448C202.031 166.161 203.618 166.614 205.243 166.789C205.874 166.86 207.676 166.904 207.888 167.743C208.031 168.31 206.847 169.897 206.618 170.456C205.715 172.574 205.203 174.85 205.108 177.164Z" fill="#65617D"/>
<path d="M188.337 113.762C188.845 115.107 189.488 116.426 189.607 117.859C189.691 118.738 189.607 119.618 189.607 120.497C189.678 121.701 189.871 122.895 190.182 124.058L192.539 134.081C192.89 135.58 193.241 137.119 193.059 138.649C192.936 139.669 192.581 140.658 192.585 141.682C192.63 142.459 192.749 143.229 192.94 143.982C193.387 146.306 193.264 148.709 192.585 150.972C192.515 151.142 192.491 151.329 192.513 151.512C192.572 151.798 192.839 151.974 193.08 152.11C195.617 153.553 198.383 154.51 201.245 154.937C203.829 148.55 205.634 141.852 206.619 135C207.219 130.85 207.511 126.647 208.281 122.528C208.299 122.29 208.396 122.066 208.556 121.895C208.844 121.644 209.28 121.802 209.618 121.97C213.942 124.13 218.101 126.628 222.061 129.443C223.453 127.57 224.432 125.401 224.929 123.091C225.425 120.781 225.427 118.385 224.933 116.074C224.436 114.082 223.727 112.153 222.818 110.324C221.85 108.099 220.644 105.994 219.222 104.05C216.083 99.9619 211.48 97.3505 206.741 95.5789C203.86 94.4974 200.894 93.6973 197.933 92.8796C196.274 92.418 193.495 90.9144 191.883 92.0838C190.19 93.3016 189.065 96.3218 188.371 98.2386C187.515 100.616 187.049 103.126 186.992 105.664C186.922 108.429 187.38 111.181 188.337 113.762Z" fill="#3F3D56"/>
<path d="M222.349 125.847C221.464 126.849 222.209 128.45 222.04 129.804C221.929 130.415 221.719 131.002 221.418 131.54L217.369 139.801C216.692 141.04 216.185 142.372 215.863 143.757C215.309 146.738 216.447 150.088 214.991 152.721C214.522 153.57 213.794 154.3 213.599 155.258C213.456 155.957 213.599 156.687 213.528 157.394C213.43 158.225 213.003 158.973 212.766 159.773C212.581 160.542 212.45 161.323 212.373 162.112C211.859 165.474 210.165 168.518 207.617 170.658C206.157 171.944 204.283 172.607 202.371 172.513C200.484 172.346 198.61 171.014 198.225 169.089C198.094 168.433 198.119 167.704 197.726 167.172C197.167 166.411 195.991 166.38 195.454 165.602L197.535 162.041C198.182 160.938 198.842 159.786 198.948 158.498C199.075 156.92 198.343 155.346 198.606 153.785C198.83 152.444 199.756 151.328 200.036 150C200.382 148.351 199.689 146.685 199.312 145.041C198.39 140.992 199.422 136.772 200.45 132.732C201.817 127.386 203.217 121.956 205.984 117.23C211.505 120.321 216.582 123.288 222.349 125.847Z" fill="#3F3D56"/>
<path d="M222.399 42.1073C222.729 43.0393 222.552 44.0724 222.488 45.0616C222.34 47.2597 222.788 49.4578 222.687 51.6867C222.585 53.9156 221.925 56.0434 221.468 58.2107C220.17 64.3963 220.483 70.8412 219.307 77.053C217.855 84.7465 214.145 91.9124 213.413 99.7201C213.18 102.2 213.21 104.855 211.903 106.948C204.134 103.394 196.791 98.9121 190.021 93.5917C191.51 82.1131 192.983 70.5774 192.784 58.9977C192.687 57.6017 192.781 56.1986 193.063 54.83C193.416 53.6804 193.923 52.5882 194.569 51.5856C196.206 48.8203 198.009 46.165 199.807 43.5141C200.958 41.8171 202.201 40.0367 204.038 39.2409C205.874 38.4452 208.048 38.8013 210.05 39.1794C212.458 39.6366 214.864 40.0938 217.267 40.551C218.769 40.8368 221.756 40.2916 222.399 42.1073Z" fill="#6C63FF"/>
<path d="M164.467 86.0918C163.48 85.0658 162.404 84.1371 161.252 83.3177C162.754 81.4185 162.457 78.6709 162.826 76.2398C163.127 74.6606 163.585 73.1181 164.192 71.6369C164.344 71.2192 164.56 70.7576 164.979 70.6477C165.236 70.6147 165.497 70.6573 165.732 70.7708C167.001 71.2368 169.65 71.2104 170.636 72.0633C171.824 73.1008 170.737 75.2726 170.289 76.5695C169.971 77.4399 165.097 86.7512 164.467 86.0918Z" fill="#BE6F72"/>
<path d="M168.152 168.192C168.789 169.264 169.206 170.461 169.375 171.709C169.476 172.957 169.036 174.324 168.013 174.984C166.989 175.643 165.521 175.423 164.302 175.028C161.718 174.154 159.34 172.724 157.324 170.83C155.308 168.936 153.7 166.621 152.604 164.037C152.219 163.114 151.885 162.134 151.204 161.421C150.698 160.959 150.136 160.568 149.533 160.256C147.87 159.28 146.266 157.997 145.496 156.177C144.726 154.357 145.073 151.926 146.668 150.844C147.165 150.546 147.715 150.353 148.284 150.278C148.854 150.202 149.432 150.245 149.985 150.404C151.088 150.73 152.144 151.207 153.125 151.824C154.766 152.752 156.771 153.552 158.201 154.787C159.471 155.873 160.609 157.342 161.692 158.621C162.932 160.093 164.095 161.634 165.174 163.237C165.521 163.707 168.444 167.765 168.152 168.192Z" fill="#65617D"/>
<path d="M137.141 158.964C136.997 161.176 136.621 163.365 136.02 165.492C135.677 166.688 135.224 167.932 134.272 168.693C133.467 169.235 132.555 169.582 131.603 169.708C131.271 169.802 130.924 169.824 130.583 169.774C129.999 169.647 129.585 169.124 129.225 168.627C127.812 166.684 126.437 164.631 125.84 162.274C124.994 158.858 125.84 155.196 127.308 152.005C127.836 150.718 128.606 149.554 129.572 148.58C130.766 147.56 132.2 146.891 133.726 146.641C135.288 146.316 137.204 145.621 137.318 147.595C137.485 151.385 137.426 155.182 137.141 158.964Z" fill="#65617D"/>
<path d="M160.55 76.3322C163.469 77.9016 166.71 79.8975 167.319 83.2518C167.695 85.3005 166.972 87.3975 167.09 89.4813C167.196 91.3146 167.937 93.0863 167.844 94.9151C167.745 95.7793 167.604 96.6377 167.42 97.4869C167.171 99.1091 167.319 100.762 167.255 102.402C167.116 106.095 165.927 109.647 165.352 113.291C164.944 115.894 164.849 118.538 165.068 121.165C165.208 122.862 165.491 124.55 165.491 126.256C165.491 127.484 165.394 128.711 165.199 129.922C164.632 133.729 163.49 137.419 161.815 140.856C159.78 145.019 160.067 150.391 160.283 155.056C160.377 155.699 160.298 156.356 160.055 156.955C159.522 157.962 158.193 158.107 157.093 158.01C153.014 157.623 149.231 155.632 146.516 152.444C146.12 152.044 145.852 151.527 145.746 150.963C145.653 150.022 146.381 149.248 146.905 148.47C148.691 145.832 148.238 142.258 148.45 139.018C148.604 136.661 149.146 134.349 150.053 132.182C150.578 130.929 151.234 129.694 151.352 128.331C151.462 127.06 151.09 125.803 150.722 124.59L149.452 120.405C147.485 113.902 145.505 107.361 142.527 101.29C140.572 102.611 139.174 104.653 138.613 107.005C137.505 111.146 139.083 115.771 137.572 119.754C137.322 120.306 137.114 120.878 136.95 121.464C136.861 121.97 136.827 122.485 136.849 122.998C136.888 127.284 137.139 131.564 137.602 135.822C137.625 136.467 137.799 137.097 138.11 137.655C138.359 138.029 138.723 138.306 138.99 138.662C139.73 139.66 139.59 141.058 139.413 142.302L138.567 148.184C138.552 148.483 138.456 148.771 138.292 149.015C138.092 149.216 137.843 149.356 137.572 149.42C134.884 150.287 132.05 150.557 129.255 150.211C128.43 150.11 127.681 149.534 126.991 149.051C126.919 148.171 127.973 147.587 128.011 146.712C127.97 146.193 127.738 145.711 127.363 145.366C125.79 143.52 123.911 141.559 123.928 139.093C123.928 138.447 124.076 137.801 124.055 137.154C124 135.497 122.9 134.077 122.515 132.481C122.041 130.507 122.672 128.458 122.913 126.441C123.243 123.724 122.853 120.972 122.49 118.259L121.072 108.306C120.908 106.761 120.613 105.234 120.192 103.743C119.659 102.274 119.033 100.844 118.318 99.4608C116.964 96.6033 115.851 93.6314 114.743 90.6683C114.391 89.8633 114.169 89.0031 114.087 88.1229C114.024 86.615 114.773 85.1906 115.703 84.03C117.447 81.8732 119.826 80.3743 122.473 79.7656C122.915 79.6374 123.38 79.6179 123.831 79.7085C124.21 79.8392 124.566 80.0338 124.884 80.2844C128.155 82.5071 131.876 83.9127 135.757 84.3909C139.638 84.8692 143.572 84.4071 147.252 83.0408C147.675 83.3749 148.458 83.2299 148.945 82.9925C150.303 82.3462 151.411 81.2691 152.604 80.3547C154.825 78.605 157.821 76.9432 160.55 76.3322Z" fill="#3F3D56"/>
<path d="M72.8582 189.232C73.0829 189.906 73.421 190.532 73.8567 191.083C75.3883 193.158 77.5248 194.815 78.5106 197.238C78.7179 197.756 78.8702 198.302 79.0606 198.829C79.6396 200.421 80.5835 201.843 81.8106 202.97C82.7466 203.778 83.7636 204.478 84.844 205.059C86.7141 206.118 88.7364 207.076 90.8602 207.019C91.2873 207.01 91.7124 206.957 92.1295 206.861C92.7905 206.719 93.4278 206.476 94.0206 206.14C95.3872 205.358 96.5591 203.828 96.2883 202.232C96.2337 201.928 96.1412 201.632 96.0133 201.353C95.7889 200.908 95.53 200.483 95.2391 200.082C94.5241 199.053 93.7879 197.998 92.7429 197.339C91.5668 196.591 90.086 196.407 89.0283 195.484C88.611 195.091 88.2504 194.638 87.9579 194.138C86.9992 192.607 86.2849 190.925 85.8425 189.157C85.521 187.839 85.3052 186.392 84.3787 185.425C83.4521 184.458 82.1787 184.238 80.9433 184.018C80.5258 183.929 80.1003 183.886 79.674 183.891C79.069 183.913 78.4429 184.093 77.876 183.798C77.309 183.504 77.1186 183.086 76.4333 183.143C75.8877 183.22 75.3735 183.453 74.9482 183.816C73.3405 185.051 72.2744 187.249 72.8582 189.232Z" fill="#3F3D56"/>
<path d="M87.8902 191.232C88.1652 192.723 88.5883 194.31 89.6967 195.281C90.4033 195.914 91.3891 196.31 91.7402 197.203C92.0914 198.095 91.6387 199.216 91.0548 200.034C90.3094 201.068 89.3855 201.949 88.3302 202.632C87.4333 203.208 86.3629 203.647 85.3348 203.393C84.4886 203.186 83.8202 202.553 83.1898 201.942C81.7429 200.548 80.2621 199.102 79.4498 197.233C78.6036 195.264 78.5613 192.982 77.639 191.043C77.1017 189.914 76.2725 188.924 75.9467 187.711C75.8006 187.272 75.8006 186.796 75.9467 186.357C76.1044 186.043 76.3431 185.781 76.636 185.6C76.9289 185.419 77.2645 185.327 77.6051 185.333C78.2864 185.356 78.9581 185.505 79.5894 185.772C81.4994 186.48 83.4545 187.048 85.4406 187.474C86.2317 187.628 86.7098 187.623 87.1329 188.419C87.5237 189.31 87.7792 190.26 87.8902 191.232Z" fill="#FBBEBE"/>
<path d="M92.798 203.832C92.4844 204.331 92.2621 204.885 92.1423 205.467C92.0424 205.92 92.0266 206.389 92.0957 206.848C92.7568 206.705 93.394 206.463 93.9868 206.127C95.3534 205.344 96.5253 203.814 96.2545 202.219C96.1999 201.914 96.1074 201.619 95.9795 201.339C95.7776 201.292 95.5674 201.301 95.3698 201.365C95.1723 201.429 94.9945 201.546 94.8541 201.704C94.0663 202.298 93.3726 203.016 92.798 203.832Z" fill="#FBBEBE"/>
<path d="M77.635 170.429C77.4509 170.841 77.3961 171.303 77.4784 171.748C77.6731 172.628 78.5404 173.133 79.323 173.533L86.765 177.314C87.2812 177.562 87.784 177.84 88.2711 178.145C89.5404 178.954 90.5388 180.097 91.6219 181.143C92.705 182.189 93.9108 183.17 95.345 183.539C96.7768 183.865 98.2731 183.661 99.5758 182.963C100.278 182.6 100.929 182.14 101.513 181.596C102.019 181.135 102.486 180.631 102.91 180.088C103.273 179.689 103.534 179.2 103.667 178.668C103.807 177.864 103.422 177.072 102.973 176.408C102.715 176.026 102.432 175.661 102.127 175.318C99.305 172.078 94.6808 170.399 90.7038 169.739C89.1215 169.475 87.6196 168.86 86.0965 168.359C84.5734 167.858 82.9615 167.48 81.3792 167.713C79.7969 167.946 78.24 168.891 77.635 170.429Z" fill="#3F3D56"/>
<path opacity="0.1" d="M77.635 170.429C77.4509 170.841 77.3961 171.303 77.4784 171.748C77.6731 172.628 78.5404 173.133 79.323 173.533L86.765 177.314C87.2812 177.562 87.784 177.84 88.2711 178.145C89.5404 178.954 90.5388 180.097 91.6219 181.143C92.705 182.189 93.9108 183.17 95.345 183.539C96.7768 183.865 98.2731 183.661 99.5758 182.963C100.278 182.6 100.929 182.14 101.513 181.596C102.019 181.135 102.486 180.631 102.91 180.088C103.273 179.689 103.534 179.2 103.667 178.668C103.807 177.864 103.422 177.072 102.973 176.408C102.715 176.026 102.432 175.661 102.127 175.318C99.305 172.078 94.6808 170.399 90.7038 169.739C89.1215 169.475 87.6196 168.86 86.0965 168.359C84.5734 167.858 82.9615 167.48 81.3792 167.713C79.7969 167.946 78.24 168.891 77.635 170.429Z" fill="black"/>
<path d="M96.2586 172.843C96.8308 173.511 97.3016 174.265 97.6548 175.081C97.9725 175.615 98.0858 176.253 97.9721 176.87C97.8057 177.285 97.539 177.648 97.1978 177.925L96.4574 178.637C96.2338 178.879 95.9737 179.081 95.6874 179.235C95.2824 179.393 94.85 179.46 94.4182 179.433C93.424 179.433 92.3536 179.433 91.5455 178.813C90.4413 177.987 90.2424 176.276 90.7459 174.962C91.2493 173.647 92.3028 172.654 93.3647 171.766C94.2278 171.041 95.6536 172.179 96.2586 172.843Z" fill="#FBBEBE"/>
<path d="M100.777 177.389C100.64 178.118 100.706 178.873 100.968 179.565C101.154 180.224 101.336 180.884 101.518 181.556C101.518 181.556 101.518 181.556 101.518 181.583C102.023 181.122 102.49 180.617 102.914 180.075C103.278 179.676 103.538 179.187 103.671 178.655C103.811 177.85 103.426 177.059 102.977 176.395C102.719 176.012 102.436 175.648 102.131 175.305C101.932 175.573 101.759 175.837 101.615 176.008C101.245 176.401 100.959 176.872 100.777 177.389Z" fill="#FBBEBE"/>
<path d="M81.3366 144.623C80.4608 148.448 80.8332 152.449 81.2985 156.353C81.6539 159.324 82.0516 162.402 81.2055 165.264C80.8924 166.332 80.3974 167.418 80.5878 168.521C80.9474 170.601 83.3589 171.401 85.3559 171.792C85.9319 171.944 86.5306 171.982 87.1201 171.902C87.7114 171.735 88.2602 171.435 88.7278 171.023C91.5663 168.879 93.722 165.901 94.9174 162.472C95.6747 160.177 95.9159 157.737 96.1486 155.324C96.5378 151.262 96.9313 147.151 96.3601 143.116C96.1909 141.929 95.937 140.755 95.8313 139.559C95.6981 137.479 95.8089 135.39 96.1613 133.338C96.8898 128.255 97.993 123.237 99.4613 118.329C95.4325 118.885 91.3374 118.117 87.7505 116.131C88.4443 116.518 87.6489 122.686 87.5643 123.552C87.3076 126.134 86.8592 128.692 86.2232 131.202C85.0428 135.892 82.407 139.963 81.3366 144.623Z" fill="#3F3D56"/>
<path opacity="0.1" d="M81.3366 144.623C80.4608 148.448 80.8332 152.449 81.2985 156.353C81.6539 159.324 82.0516 162.402 81.2055 165.264C80.8924 166.332 80.3974 167.418 80.5878 168.521C80.9474 170.601 83.3589 171.401 85.3559 171.792C85.9319 171.944 86.5306 171.982 87.1201 171.902C87.7114 171.735 88.2602 171.435 88.7278 171.023C91.5663 168.879 93.722 165.901 94.9174 162.472C95.6747 160.177 95.9159 157.737 96.1486 155.324C96.5378 151.262 96.9313 147.151 96.3601 143.116C96.1909 141.929 95.937 140.755 95.8313 139.559C95.6981 137.479 95.8089 135.39 96.1613 133.338C96.8898 128.255 97.993 123.237 99.4613 118.329C95.4325 118.885 91.3374 118.117 87.7505 116.131C88.4443 116.518 87.6489 122.686 87.5643 123.552C87.3076 126.134 86.8592 128.692 86.2232 131.202C85.0428 135.892 82.407 139.963 81.3366 144.623Z" fill="black"/>
<path d="M103.303 122.211C104.995 127.307 104.623 132.872 103.891 138.209C103.159 143.546 102.08 148.883 102.398 154.26C102.52 156.37 102.85 158.537 102.258 160.555C101.929 161.54 101.493 162.482 100.959 163.365L87.4587 187.623C87.1145 188.253 86.6249 188.783 86.034 189.167C85.4431 189.551 84.7695 189.775 84.0741 189.821C82.6314 189.927 81.2141 189.434 79.8687 188.885C78.9747 188.577 78.1439 188.098 77.4191 187.474C77.0597 187.163 76.7782 186.766 76.5984 186.317C76.4186 185.869 76.346 185.381 76.3867 184.897C76.9917 180.686 77.9014 176.373 78.5741 172.148C79.0316 169.282 80.0294 166.537 81.5102 164.072C82.5552 162.314 83.8414 160.736 84.7425 158.907C87.3318 153.666 86.4349 147.274 84.4379 141.761C82.441 136.248 79.4668 131.131 77.8802 125.495C77.4099 123.927 77.141 122.301 77.0806 120.659C77.061 118.964 77.3634 117.282 77.9703 115.708C78.5772 114.135 79.4768 112.701 80.6175 111.489C80.9504 111.097 81.3701 110.795 81.8402 110.61C82.3898 110.477 82.9624 110.488 83.5072 110.64C91.0253 112.157 100.82 114.685 103.303 122.211Z" fill="#3F3D56"/>
<path d="M224.654 46.1431C224.9 48.0686 224.231 50.0161 223.279 51.6823C219.679 57.925 211.378 60.6858 204.96 57.7799C202.316 56.5798 200.078 54.6014 197.886 52.6495C197.15 51.9901 196.384 51.2999 196.012 50.3678C195.356 48.7193 196.147 46.7541 197.438 45.5759C198.728 44.3977 200.399 43.8174 202.062 43.2943C207.549 41.5182 223.347 35.9174 224.654 46.1431Z" fill="#FBBEBE"/>
<path d="M221.443 40.0322C226.44 44.2087 233.713 48.1873 239.373 51.2822C241.298 52.3373 243.435 53.5243 244.129 55.6785C244.501 56.8303 244.378 58.0832 244.256 59.2966C244.019 61.631 243.773 64.0006 242.906 66.1679C241.886 68.7046 240.084 70.7972 238.637 73.1008C236.099 77.1366 234.61 81.8933 231.475 85.4587C233.59 92.7608 235.904 100.054 236.657 107.633C236.699 107.842 236.677 108.059 236.594 108.253C236.507 108.381 236.394 108.488 236.264 108.565L231.001 112.153C230.427 112.501 229.913 112.947 229.482 113.472C228.551 114.729 228.674 116.496 228.098 117.96C227.783 118.675 227.332 119.316 226.772 119.844C226.212 120.373 225.555 120.779 224.841 121.038C223.402 121.553 221.87 121.721 220.36 121.53C218.438 121.404 216.587 120.727 215.012 119.574C213.671 118.518 212.715 117.037 211.793 115.577C211.11 114.582 210.542 113.506 210.101 112.373C209.538 110.755 209.504 108.992 209.525 107.268C209.539 103.989 209.841 100.718 210.426 97.4956C210.672 96.2163 210.976 94.9546 211.171 93.6665C211.56 91.0727 211.484 88.4261 211.772 85.8192C212.165 82.8869 212.795 79.9942 213.654 77.1717C214.125 75.4235 214.492 73.647 214.754 71.8523C215.249 68.6958 216.235 65.6492 217.221 62.6202L218.913 57.4282C219.273 56.3071 219.637 55.1905 220.064 54.0958C220.859 52.0516 221.883 50.0601 222.154 47.8795C222.454 45.5012 219.984 42.6788 220.817 40.4455C220.885 40.1993 221.253 39.874 221.443 40.0322Z" fill="#3F3D56"/>
<path d="M242.775 54.4519C243.947 55.0014 244.594 56.3115 245.013 57.5776C245.957 60.4311 246.184 63.4878 245.673 66.4581C245.507 67.2048 245.394 67.9629 245.334 68.7265C245.343 69.6117 245.427 70.4943 245.584 71.3643C246.007 74.7274 245.584 78.1433 245.723 81.5372C245.867 85.3531 246.667 89.3845 245.127 92.8531C244.103 95.1568 242.165 96.8713 240.253 98.4276C233.134 104.193 225.278 108.904 216.912 112.425C218.354 110.623 218.38 107.91 217.419 105.787C216.459 103.664 214.674 102.068 212.766 100.828C215.194 100.267 217.546 99.3943 219.768 98.2298C224.201 95.891 228.001 92.4663 231.753 89.0768C232.307 88.6632 232.738 88.0966 232.997 87.4414C233.378 86.1225 232.329 84.8696 231.601 83.7133C229.397 80.1963 229.909 75.6023 230.831 71.5313C231.859 67.0691 233.37 62.6245 236.124 59.0372C237.841 56.7951 240.084 55.0718 242.775 54.4519Z" fill="#3F3D56"/>
<path d="M216.54 112.535C216.16 113.179 215.666 113.743 215.084 114.197C213.815 115.076 212.072 114.742 210.655 114.118C209.338 113.537 208.122 112.734 207.059 111.739C206.601 111.234 206.061 110.817 205.464 110.509C204.355 110.069 202.807 110.399 202.185 109.339C202.112 109.228 202.077 109.095 202.083 108.961C202.121 108.579 202.604 108.473 202.976 108.451C204.703 108.332 206.38 107.795 207.871 106.882C207.395 106.524 206.987 106.077 206.669 105.563C206.538 105.383 206.466 105.164 206.466 104.938C206.518 104.693 206.648 104.473 206.834 104.314C208.194 102.981 209.906 102.098 211.75 101.778C213.594 101.459 215.489 101.717 217.191 102.521C217.524 102.66 217.815 102.888 218.038 103.18C218.194 103.45 218.299 103.748 218.346 104.059C218.621 105.29 219.616 107.137 219.256 108.381C218.858 109.81 217.356 111.326 216.54 112.535Z" fill="#FBBEBE"/>
<path d="M187.69 106.992C192.953 100.674 195.305 92.3608 197.488 84.3201L199.05 78.6049L202.815 64.8403C203.369 62.8092 203.923 60.7781 204.292 58.7075C204.922 55.1334 204.981 51.4801 204.943 47.8488C204.889 46.3434 204.557 44.8629 203.966 43.4877C203.598 42.5381 203.42 41.527 203.12 40.5466C202.737 39.1798 202.166 37.8781 201.423 36.6823C201.216 36.3268 200.958 36.0065 200.657 35.7327C200.137 35.365 199.547 35.1163 198.927 35.0029C197.582 34.5874 196.188 34.3669 194.785 34.3479C193.38 34.4007 191.933 34.9062 191.028 36.0141C190.338 36.8626 190.021 37.9616 189.475 38.9156C189.221 39.3062 188.991 39.7129 188.786 40.1334C188.553 40.7721 188.424 41.4466 188.405 42.1293C188.185 44.8989 187.997 47.6715 187.842 50.447C187.77 51.7087 187.707 52.9792 187.753 54.2453C187.791 55.2301 187.893 56.2104 187.994 57.1908L188.997 66.7922C189.23 69.0475 189.065 71.1577 189.259 73.4174C189.733 78.8731 188.604 84.3288 187.444 89.6835C186.89 92.2289 186.319 94.8095 185.134 97.1131C184.089 99.153 182.524 101.224 182.939 103.496C183.083 104.288 183.468 105.026 183.527 105.826C183.498 106.322 183.545 106.819 183.666 107.299C183.839 107.626 184.107 107.887 184.432 108.045C184.756 108.203 185.121 108.25 185.473 108.178C186.311 108.026 187.084 107.612 187.69 106.992Z" fill="#3F3D56"/>
<path d="M188.333 81.7087C188.494 82.9704 188.371 84.2497 188.43 85.5202C188.563 87.1566 188.846 88.7759 189.276 90.3561C189.7 92.1146 190.241 94.0841 191.735 95.0601C192.109 95.2623 192.467 95.4961 192.805 95.7591C192.971 95.8954 193.094 96.0813 193.156 96.2918C193.218 96.5024 193.216 96.7276 193.152 96.9373L191.988 96.7351C192.12 96.8399 192.23 96.9726 192.309 97.1243C192.388 97.2761 192.436 97.4435 192.448 97.6157C192.461 97.7878 192.439 97.9609 192.383 98.1234C192.327 98.2859 192.238 98.4343 192.123 98.5589C192.008 98.6835 191.869 98.7814 191.715 98.8462C191.561 98.9111 191.395 98.9414 191.229 98.9352C191.063 98.9291 190.9 98.8865 190.751 98.8104C190.602 98.7343 190.47 98.6263 190.364 98.4936C190.408 98.8897 190.372 99.291 190.258 99.6718C190.199 99.8586 190.086 100.022 189.935 100.14C189.784 100.258 189.601 100.325 189.412 100.331C189.193 100.296 188.985 100.205 188.807 100.067L185.769 98.1111C184.859 97.602 184.102 96.8412 183.582 95.913L182.253 93.8335C181.961 93.4327 181.728 92.988 181.564 92.5147C181.069 90.7562 182.452 88.8042 181.733 87.1468C181.517 86.7384 181.263 86.3526 180.976 85.995C179.44 83.7969 179.537 80.8074 179.707 78.0818C179.762 77.163 179.922 76.0727 180.722 75.6726C181.357 75.3517 182.118 75.6375 182.706 76.0375C183.294 76.4376 183.815 76.9651 184.483 77.2025C184.906 77.352 185.372 77.3696 185.795 77.5278C186.387 77.7433 186.937 78.5829 187.335 79.0797C187.897 79.8421 188.243 80.7527 188.333 81.7087Z" fill="#FBBEBE"/>
<path d="M151.259 42.1995C150.9 43.0567 150.395 43.8399 149.77 44.512C149.455 44.8478 149.07 45.1023 148.643 45.255C148.217 45.4077 147.763 45.4544 147.316 45.3912C146.377 45.1978 145.687 44.3933 145.065 43.6327C143.44 41.65 141.795 39.6409 140.703 37.2933C139.036 33.7192 138.77 29.6395 138.528 25.6784C138.469 24.6585 138.418 23.577 138.888 22.6846C139.485 21.546 140.75 21.0096 141.917 20.5568L148.369 18.0509C148.765 17.8563 149.202 17.773 149.639 17.8091C150.65 17.985 151.022 19.2511 151.297 20.2754C151.789 22.1161 152.607 23.8455 153.709 25.3751C155.155 27.3798 158.4 30.0791 156.547 32.5805C154.309 35.5788 152.888 38.8144 151.259 42.1995Z" fill="#BE6F72"/>
<path d="M159.513 30.7605C162.339 33.5213 163.295 37.8209 163.16 41.8434C163.025 45.866 161.95 49.7874 161.337 53.7617C160.723 57.7359 160.6 61.9782 162.263 65.6315C162.834 66.8845 163.613 68.0451 164.01 69.3683C164.344 70.6762 164.457 72.0342 164.345 73.3821C164.338 74.8031 164.077 76.2104 163.575 77.5322C162.673 79.6072 160.82 81.0492 159.048 82.368C155.43 85.0849 151.741 87.8458 147.493 89.2658C144.617 90.2285 141.57 90.5451 138.558 90.7165C136.519 90.8854 134.467 90.825 132.44 90.5363C128.895 89.9222 125.636 88.1297 123.154 85.4278C122.721 84.9923 122.365 84.4821 122.1 83.9199C121.842 83.1883 121.717 82.413 121.732 81.6339C121.631 78.747 121.648 75.8601 121.783 72.9733C121.861 70.2221 122.225 67.4877 122.87 64.8182C123.678 61.7408 125.079 58.8569 126.141 55.8587C129.838 45.4352 129.466 33.5741 134.602 23.8408C135.711 21.7394 137.564 19.5281 139.848 19.8622C140.288 19.8897 140.702 20.0873 141.008 20.4161C141.27 20.8162 141.417 21.2861 141.431 21.7701C141.977 26.5005 142.751 31.354 144.896 35.6227C145.742 37.2977 147.011 39.8475 148.962 40.2959C150.912 40.7444 152.063 38.81 153.108 37.4384C154.944 34.9231 157.099 32.6769 159.513 30.7605Z" fill="#E3E8F4"/>
<path d="M173.039 23.643C173.615 23.9668 174.153 24.3592 174.642 24.8124C175.911 26.061 176.377 27.9733 176.368 29.7846C176.36 31.5959 175.945 33.3807 175.691 35.1744C175.01 40.0103 175.59 44.9604 175.861 49.8579C175.943 50.6486 175.897 51.4481 175.725 52.223C175.518 52.9616 175.091 53.6123 174.816 54.3288C174.008 56.4478 174.617 58.8658 174.143 61.0903C173.635 63.4599 171.896 65.614 172.222 68.0188C172.353 68.9596 172.789 69.8256 172.975 70.7576C173.161 71.6896 173.001 72.8151 172.226 73.3162C171.452 73.8174 170.327 73.4525 169.405 73.7295C169.03 73.8732 168.665 74.0436 168.313 74.2394C166.887 74.9077 165.186 74.6791 163.782 73.9493C162.405 73.1685 161.167 72.1485 160.122 70.9335C158.51 69.2189 156.949 67.3417 156.243 65.0601C155.21 61.7541 156.128 58.1536 157.25 54.874C158.371 51.5944 159.708 48.2796 159.509 44.7934C159.399 42.8415 158.806 40.9643 158.451 39.0475C158.011 36.3918 157.854 33.6939 157.981 31.0024C158.036 29.0328 158.163 27.0018 158.98 25.2213C159.562 24.0336 160.422 23.0168 161.48 22.2641C162.539 21.5113 163.762 21.0468 165.038 20.913C168 20.5789 170.538 22.1483 173.039 23.643Z" fill="#3F3D56"/>
<path opacity="0.1" d="M165.038 66.1371C165.068 67.5438 165.311 68.9369 165.758 70.2651C166.515 68.4715 166.604 66.458 166.705 64.506C167.128 57.7842 168.563 51.4448 170.09 44.934C168.977 45.8132 168.351 48.0113 167.818 49.3302C165.702 54.6487 164.753 60.3898 165.038 66.1371Z" fill="black"/>
<path d="M136.518 19.2996C134.479 19.8579 132.711 21.1152 130.735 21.9373C128.683 22.8166 126.475 23.1902 124.321 23.731C119.337 24.9883 114.332 27.3227 111.324 31.6442C109.107 34.8227 108.189 38.7486 106.67 42.3491C105.401 45.3693 103.709 48.2005 102.774 51.3438C101.551 55.4455 101.691 59.8418 101.991 64.1237C102.236 67.6407 102.609 71.1973 104.145 74.3142C104.948 75.9496 106.057 77.4136 106.861 79.049C107.825 81.0141 108.333 83.1814 109.137 85.2037C109.941 87.226 111.121 89.2483 112.987 90.3034L116.075 88.4262C120.683 85.6258 125.29 82.821 129.753 79.7788C133.646 77.141 137.572 74.112 139.645 69.7773C141.481 65.9482 141.663 61.4728 141.189 57.2216C140.715 52.9704 139.632 48.8116 139.074 44.5736C138.362 39.2396 138.469 33.8221 139.391 28.5229C139.814 26.1313 140.94 23.6606 141.172 21.2779C141.43 18.7324 138.283 18.816 136.518 19.2996Z" fill="#3F3D56"/>
<path d="M117.425 89.1867C119.79 91.5123 123.192 92.1893 126.149 93.5829C128.346 94.6431 130.325 96.1361 131.975 97.9792C132.885 99.0167 133.765 100.428 133.308 101.747C132.923 102.881 131.742 103.461 130.659 103.883C129.314 104.411 127.812 104.877 126.471 104.345C125.684 104.033 125.049 103.409 124.326 102.965C122.553 101.87 120.319 101.865 118.5 100.854C115.936 99.43 114.658 96.2954 112.247 94.6029C110.927 93.6797 109.103 92.9235 108.968 91.2749C108.962 90.6787 109.083 90.0886 109.323 89.5472C109.81 88.2019 110.639 83.5815 112.492 83.7046C114.51 83.8408 115.923 88.0744 117.425 89.1867Z" fill="#FBBEBE"/>
<path d="M105.034 68.5814C105.808 71.4742 107.606 73.9405 109.472 76.2353C110.813 77.8839 112.285 79.6776 112.332 81.8361C112.374 83.876 111.062 85.7532 109.37 86.7951C107.678 87.837 105.685 88.1711 103.726 88.303C102.159 88.4598 100.578 88.3454 99.047 87.9645C95.18 86.8742 92.4977 83.3704 89.4558 80.6623C87.6493 79.0577 85.6185 77.6597 84.235 75.6506C82.8516 73.6415 82.2677 70.7576 83.63 68.7309C84.1216 68.074 84.6901 67.4832 85.3223 66.9724C87.6328 64.8908 89.6031 62.4336 91.1566 59.6966C91.7827 58.5932 92.3835 57.3974 93.437 56.7336C94.9473 55.7796 96.885 56.2148 98.5943 56.6808C100.452 57.1864 105.685 58.1755 106.049 60.6374C106.197 61.6486 104.991 63.2224 104.809 64.3083C104.578 65.7323 104.654 67.192 105.034 68.5814Z" fill="#FBBEBE"/>
<path d="M114.599 74.0944C115.153 75.1382 115.61 76.235 115.962 77.3696C117.252 82.0297 114.946 86.8304 113.846 91.5431C112.442 97.5792 113.038 103.892 112.97 110.104C112.941 112.944 112.649 116.07 110.682 118.039C110.174 118.54 109.565 118.963 109.222 119.596C109.01 120.059 108.852 120.548 108.752 121.051C108.452 122.137 107.919 123.139 107.194 123.981C106.469 124.823 105.569 125.484 104.564 125.914C103.558 126.345 102.472 126.533 101.386 126.466C100.3 126.399 99.2432 126.078 98.2938 125.526C96.6903 124.599 95.2984 122.989 93.4622 122.941C92.8849 122.97 92.3098 123.036 91.7403 123.139C89.9126 123.328 88.123 122.625 86.4095 121.934C86.0006 121.8 85.619 121.589 85.2841 121.31C84.9753 121.016 84.7765 120.62 84.493 120.303C83.448 119.134 81.6626 119.336 80.1564 119.011C79.0327 118.75 78.0036 118.162 77.1893 117.315C76.375 116.469 75.8091 115.4 75.5576 114.232C75.253 112.72 75.5111 111.155 75.7649 109.629L76.8988 102.833C77.3746 100.34 77.7038 97.8189 77.8845 95.2843C78.0235 92.42 77.7873 89.5494 77.1822 86.7512C76.683 84.4652 75.9384 82.2275 75.6676 79.8975C75.1958 75.7217 76.253 71.5143 78.6291 68.1111C79.2172 67.2715 79.9872 66.4318 80.9857 66.3526C81.7938 66.2779 82.5511 66.7263 83.2534 67.1572C89.3542 70.9086 95.4973 74.5824 101.683 78.1785C103.375 79.1677 105.105 80.1612 106.992 80.6492C107.559 80.7987 108.372 80.7372 108.452 80.1393C108.462 79.9114 108.404 79.6858 108.287 79.493C107.229 77.3784 105.698 75.5628 104.479 73.5493C103.261 71.5358 102.321 69.153 102.681 66.8142C103.172 63.5786 106.066 61.4376 108.431 63.9743C111.083 66.8538 112.86 70.5555 114.599 74.0944Z" fill="#F86D70"/>
<path d="M95.6535 115.125C100.616 115.454 105.689 115.806 110.284 117.784C111.76 118.417 113.326 119.235 114.878 118.844C115.651 118.599 116.37 118.199 116.994 117.666C118.906 116.208 120.714 114.607 122.401 112.874C122.231 111.911 120.975 111.779 120.036 111.788C117.745 111.802 115.486 111.238 113.452 110.144C112.784 109.726 112.075 109.383 111.337 109.119C109.327 108.543 107.28 109.642 105.262 110.179C102.275 110.97 99.127 110.509 96.0766 110.043L87.8435 108.781C87.0777 108.666 86.2147 108.574 85.6054 109.067C85.1982 109.466 84.919 109.987 84.8058 110.557C83.7989 114.074 84.2812 114.368 87.632 114.588L95.6535 115.125Z" fill="#FBBEBE"/>
<path opacity="0.1" d="M208.074 54.0869C215.551 54.0869 221.612 47.7885 221.612 40.0189C221.612 32.2494 215.551 25.9509 208.074 25.9509C200.597 25.9509 194.535 32.2494 194.535 40.0189C194.535 47.7885 200.597 54.0869 208.074 54.0869Z" fill="black"/>
<path d="M207.977 53.476C215.454 53.476 221.515 47.1775 221.515 39.408C221.515 31.6384 215.454 25.34 207.977 25.34C200.5 25.34 194.438 31.6384 194.438 39.408C194.438 47.1775 200.5 53.476 207.977 53.476Z" fill="#FBBEBE"/>
<path d="M219.404 21.5459C220.487 22.2405 221.621 22.9878 222.213 24.1572C222.532 24.9511 222.774 25.7758 222.937 26.6191C223.677 29.2569 225.648 31.5473 225.767 34.295C225.898 37.3064 223.723 39.9222 221.261 41.5004C220.699 41.9309 220.022 42.1676 219.323 42.1775C218.608 42.1291 217.991 41.6631 217.335 41.3641C214.555 40.0804 211.446 41.7071 208.501 42.4544C205.441 43.2223 202.231 43.0264 199.278 41.8917C197.692 41.2762 196.152 40.353 195.157 38.9242C194.163 37.4955 193.808 35.4952 194.654 33.9609C195.077 33.1783 195.779 32.4705 195.733 31.5781C195.707 31.0418 195.403 30.5582 195.31 30.0306C195.174 29.1909 195.597 28.3732 196.029 27.6567C197.987 24.3825 200.461 21.4741 203.348 19.0532C204.194 18.3322 205.172 17.6288 206.28 17.5761C208.505 17.4749 210.418 19.1983 212.707 19.2071C215.304 19.2159 217.17 20.1127 219.404 21.5459Z" fill="#3F3D56"/>
<path opacity="0.1" d="M158.138 36.436C165.849 36.436 172.099 29.9407 172.099 21.9284C172.099 13.9161 165.849 7.42078 158.138 7.42078C150.427 7.42078 144.176 13.9161 144.176 21.9284C144.176 29.9407 150.427 36.436 158.138 36.436Z" fill="black"/>
<path d="M158.383 36.0801C166.094 36.0801 172.345 29.5848 172.345 21.5724C172.345 13.5601 166.094 7.06482 158.383 7.06482C150.673 7.06482 144.422 13.5601 144.422 21.5724C144.422 29.5848 150.673 36.0801 158.383 36.0801Z" fill="#BE6F72"/>
<path d="M165.842 29.7669C167.814 30.9143 170.247 30.7956 172.447 30.2725C173.694 30.0288 174.877 29.5101 175.916 28.7514C176.432 28.3684 176.857 27.8686 177.16 27.2898C177.462 26.711 177.634 26.0683 177.663 25.4102C177.663 23.9375 176.732 22.6098 176.618 21.1371C176.478 19.2819 177.642 17.5673 177.765 15.7033C177.887 13.8393 177.003 12.1599 176.14 10.5597C174.655 7.81204 173.111 5.02921 170.851 2.92781C168.592 0.826399 165.461 -0.514458 162.5 0.193338C161.045 0.540642 159.695 1.35395 158.21 1.51221C156.89 1.6397 155.587 1.22646 154.271 1.05061C152.955 0.874757 151.479 0.984664 150.535 1.92986C150.019 2.45741 149.689 3.20037 149.084 3.58724C148.674 3.78388 148.25 3.94703 147.815 4.07523C146.288 4.71268 145.59 6.50196 145.048 8.11098L141.418 18.9214C142.632 19.8006 144.096 20.2007 145.425 20.8777C146.753 21.5547 148.043 22.6362 148.314 24.1485C148.521 25.2959 148.128 26.6148 148.771 27.5732C149.359 28.4524 150.556 28.6019 151.572 28.4524C152.587 28.303 153.607 27.9381 154.622 28.1007C157.161 28.5008 158.104 30.1186 160.452 28.1007C162.8 26.0829 163.659 28.492 165.842 29.7669Z" fill="#3F3D56"/>
<path opacity="0.1" d="M99.051 67.4781C106.061 67.4781 111.743 61.5733 111.743 54.2893C111.743 47.0054 106.061 41.1006 99.051 41.1006C92.0412 41.1006 86.3586 47.0054 86.3586 54.2893C86.3586 61.5733 92.0412 67.4781 99.051 67.4781Z" fill="black"/>
<path d="M99.5417 66.7614C106.551 66.7614 112.234 60.8566 112.234 53.5727C112.234 46.2887 106.551 40.3839 99.5417 40.3839C92.5319 40.3839 86.8494 46.2887 86.8494 53.5727C86.8494 60.8566 92.5319 66.7614 99.5417 66.7614Z" fill="#FBBEBE"/>
<path d="M109.26 40.6785C106.238 38.2695 102.843 36.414 99.2204 35.192C96.902 34.4095 94.3804 33.8731 92.0281 34.5941C88.8381 35.5393 84.5693 36.9505 82.5935 39.7245C81.6204 41.0874 80.6347 42.4898 80.165 44.1208C79.2258 47.4004 80.5627 50.8954 80.4739 54.3157C80.3681 58.3031 78.3331 61.9432 76.112 65.1964C73.8908 68.4496 73.4423 73.1096 72.1308 76.864C71.6823 78.1521 71.5385 79.9414 72.6935 80.5877C73.7089 81.1724 74.9358 80.4426 75.875 79.7392L81.5231 75.4968C81.9621 75.1218 82.4683 74.8409 83.0123 74.6703C84.1758 74.389 85.3139 75.1451 86.287 75.8617L98.1331 84.5663C98.3673 84.0695 98.4936 83.5254 98.5031 82.9724C98.5126 82.4193 98.4051 81.8709 98.1881 81.3658C99.3008 81.7219 100.109 82.6847 101.086 83.3705C102.064 84.0563 103.549 84.2805 104.259 83.3221C104.97 82.3637 104.433 81.0756 103.642 80.3019C102.85 79.5282 101.81 79.0666 101.035 78.2708C99.4997 76.6838 99.3431 74.1779 98.3743 72.1732C97.6804 70.7664 96.5593 69.5882 96.0685 68.0891C95.2689 65.6404 96.3139 63.0027 97.3377 60.6463C98.5604 57.8503 99.9439 54.8652 102.546 53.4057C103.422 52.9133 104.39 52.6231 105.287 52.1747C107.521 51.0625 110.309 48.4379 111.401 46.0859C112.357 43.9977 110.885 41.9798 109.26 40.6785Z" fill="#3F3D56"/>
<path opacity="0.1" d="M90.0476 84.2629C91.2619 85.0674 92.6326 85.5817 93.8257 86.4214C95.0188 87.2611 96.0638 88.536 96.0976 90.0307C96.1315 91.4595 95.2515 92.7125 94.4053 93.8467L84.0992 107.902L89.3538 109.348C88.5076 110.561 88.2919 112.109 87.8519 113.533C87.4119 114.957 86.5826 116.439 85.178 116.813C83.9088 117.151 82.5803 116.457 81.2688 116.536C80.2999 116.597 79.3861 117.072 78.4172 117.112C77.1691 117.16 76.0099 116.479 74.9691 115.758C72.6507 114.144 70.3491 111.832 70.3661 108.93C70.421 107.949 70.6104 106.981 70.9287 106.055C72.4476 100.907 74.0214 95.636 77.1691 91.354C78.8615 89.068 80.9303 87.138 82.9992 85.2212C83.4696 84.7291 84.0232 84.3312 84.6322 84.0475C85.9861 83.5199 87.4626 84.1705 88.863 84.5926C90.2634 85.0146 92.0276 85.0762 92.8357 83.832" fill="black"/>
<path d="M89.6035 83.3968C90.8178 84.1969 92.1885 84.7157 93.3816 85.5553C94.5747 86.395 95.6197 87.6699 95.6578 89.1603C95.6959 90.6506 94.8116 91.8464 93.9655 92.9806L83.6551 107.022L88.9097 108.469C88.0635 109.682 87.8478 111.225 87.4078 112.654C86.9678 114.083 86.1385 115.56 84.7339 115.933C83.4647 116.272 82.1362 115.577 80.8247 115.656C79.8558 115.714 78.942 116.193 77.9731 116.228C76.725 116.276 75.5658 115.595 74.525 114.874C72.2066 113.265 69.905 110.948 69.9262 108.051C69.9769 107.069 70.165 106.101 70.4846 105.176C72.0035 100.023 73.5773 94.7523 76.725 90.4747C78.4173 88.1843 80.4904 86.2543 82.5551 84.32C83.0277 83.8306 83.5807 83.4331 84.1881 83.1462C85.542 82.6186 87.0185 83.2693 88.4189 83.6957C89.8193 84.1222 91.5835 84.1793 92.3916 82.9352" fill="#F86D70"/>
<g opacity="0.1">
<path opacity="0.1" d="M195.597 36.0096C196.592 37.4384 198.136 38.366 199.718 38.9771C202.67 40.1163 205.882 40.3123 208.941 39.5398C211.903 38.7925 214.995 37.1658 217.775 38.4495C218.431 38.7529 219.044 39.2145 219.759 39.2672C220.459 39.2541 221.137 39.0161 221.701 38.5858C223.415 37.4868 224.988 35.8865 225.742 34.0005C225.742 34.0973 225.742 34.194 225.767 34.2951C225.898 37.3065 223.723 39.9223 221.261 41.5005C220.699 41.931 220.022 42.1677 219.323 42.1776C218.608 42.1292 217.991 41.6632 217.335 41.3643C214.555 40.0805 211.446 41.7072 208.501 42.4545C205.441 43.2224 202.231 43.0265 199.278 41.8918C197.692 41.2763 196.152 40.3531 195.157 38.9243C194.163 37.4956 193.808 35.4953 194.654 33.961L194.717 33.8511C194.854 34.6291 195.155 35.3661 195.597 36.0096Z" fill="black"/>
<path opacity="0.1" d="M196.16 28.6635C196.194 29.3406 195.8 29.9077 195.424 30.4836C195.371 30.3408 195.33 30.1938 195.301 30.044C195.174 29.257 195.538 28.4921 195.94 27.8019C196.055 28.0757 196.129 28.3663 196.16 28.6635Z" fill="black"/>
</g>
<path opacity="0.1" d="M146.038 6.67787L142.408 17.4839C143.622 18.3631 145.086 18.7676 146.415 19.4402C147.743 20.1128 149.034 21.1987 149.304 22.711C149.512 23.8584 149.118 25.1773 149.761 26.1401C150.349 27.0193 151.547 27.1644 152.562 27.0193C153.577 26.8742 154.597 26.505 155.612 26.6676C158.151 27.0677 159.094 28.6855 161.442 26.6896C163.79 24.6937 164.641 27.0633 166.824 28.3382C168.795 29.49 171.228 29.3713 173.428 28.8438C174.676 28.6014 175.859 28.0843 176.897 27.3271C177.045 27.2016 177.186 27.068 177.321 26.927C176.997 27.6475 176.509 28.2752 175.899 28.7558C174.86 29.5146 173.677 30.0333 172.43 30.2769C170.23 30.8001 167.776 30.9188 165.825 29.7714C163.642 28.4965 162.745 26.1708 160.444 28.1228C158.142 30.0747 157.144 28.5009 154.614 28.1228C153.599 27.9601 152.583 28.325 151.564 28.4745C150.544 28.624 149.351 28.4745 148.763 27.5952C148.12 26.6368 148.513 25.318 148.306 24.1705C148.035 22.6582 146.745 21.5724 145.416 20.8997C144.088 20.2271 142.624 19.8183 141.41 18.9434L145.057 8.10665C145.48 6.91526 145.945 5.62716 146.791 4.77869C146.498 5.3928 146.246 6.0274 146.038 6.67787Z" fill="black"/>
<g opacity="0.1">
<path opacity="0.1" d="M99.1311 81.8406C100.066 82.2802 101.246 82.3461 101.839 81.524C102.503 80.6448 102.012 79.282 101.221 78.5038C100.43 77.7257 99.3891 77.2685 98.6149 76.4727C97.0792 74.8901 96.9226 72.3842 95.9538 70.3795C95.2599 68.9683 94.1388 67.7902 93.648 66.291C92.8484 63.8467 93.8934 61.2046 94.9172 58.8526C96.1399 56.0566 97.5234 53.0715 100.125 51.612C101.001 51.1196 101.97 50.8294 102.867 50.381C105.101 49.2688 107.889 46.6398 108.98 44.2878C109.898 42.3051 108.604 40.3795 107.064 39.0739C107.813 39.5794 108.545 40.1114 109.255 40.6785C110.884 41.9974 112.352 43.9976 111.371 46.0771C110.279 48.4291 107.491 51.0536 105.257 52.1659C104.36 52.6055 103.391 52.9045 102.516 53.3968C99.9138 54.8564 98.5303 57.8414 97.3076 60.6375C96.2795 62.9938 95.2345 65.6316 96.0384 68.0803C96.5292 69.5794 97.6503 70.7576 98.3441 72.1644C99.3257 74.1691 99.4695 76.675 101.005 78.262C101.78 79.0577 102.82 79.5149 103.611 80.2931C104.403 81.0712 104.881 82.4165 104.229 83.3133C103.578 84.2102 102.029 84.0255 101.056 83.3617C100.4 82.9001 99.8038 82.2934 99.1311 81.8406Z" fill="black"/>
<path opacity="0.1" d="M73.4716 77.9411L79.1197 73.7031C79.5585 73.3268 80.0646 73.0444 80.6089 72.8722C81.7724 72.5952 82.9104 73.3514 83.8835 74.068L95.7297 82.7725C95.964 82.275 96.0903 81.7302 96.0998 81.1765C96.1093 80.6227 96.0017 80.0735 95.7847 79.5677C96.872 79.9194 97.6632 80.8602 98.6067 81.5196C98.4695 81.455 98.3281 81.4006 98.1836 81.3569C98.4005 81.862 98.508 82.4105 98.4985 82.9635C98.489 83.5166 98.3627 84.0607 98.1286 84.5574L86.2824 75.8528C85.3093 75.1363 84.167 74.3801 83.0077 74.6615C82.4637 74.8321 81.9575 75.113 81.5185 75.488L75.8704 79.7303C74.9312 80.4337 73.7043 81.1635 72.6889 80.5788C72.4111 80.4015 72.1832 80.1513 72.028 79.8534C71.8728 79.5555 71.7958 79.2205 71.8046 78.8819C72.4039 78.66 72.9663 78.3426 73.4716 77.9411Z" fill="black"/>
</g>
<path d="M214.581 106.653C214.581 106.653 190.339 108.671 185.516 105.101L207.693 101.549L214.581 106.653Z" fill="#E3E8F4"/>
<path opacity="0.1" d="M214.581 106.653C214.581 106.653 190.339 108.671 185.516 105.101L207.693 101.549L214.581 106.653Z" fill="black"/>
<path d="M214.581 106.653L207.79 102.186C207.79 102.186 187.533 108.236 181.983 105.739L187.631 97.5044L207.702 101.571L214.581 106.653Z" fill="#E3E8F4"/>
<path d="M184.458 47.4268C183.709 48.4097 183.108 49.5052 182.676 50.6757C182.482 51.2955 182.385 51.9418 182.22 52.5704C181.755 54.136 181.04 55.6089 180.104 56.9271C178.018 60.0792 175.412 63.1214 174.888 66.9066C174.634 68.775 174.913 70.6742 175.268 72.525C175.461 73.7455 175.796 74.9369 176.267 76.0728C176.804 77.2774 177.604 78.3369 178.217 79.5019C178.778 80.6454 179.25 81.8331 179.63 83.054C180.354 82.3023 180.781 81.2955 181.361 80.4163C181.94 79.537 182.803 78.7457 183.823 78.7325C184.999 78.7325 185.968 79.7437 187.131 79.9019C187.313 79.94 187.501 79.9216 187.673 79.8492C188.096 79.6426 188.13 79.0491 188.096 78.5743C187.762 75.2551 185.934 71.9799 186.797 68.7618C187.593 65.7856 190.436 63.926 191.929 61.2574C193.012 59.3187 193.334 57.0326 193.621 54.8081C193.981 52.1484 194.345 49.4667 194.184 46.7894C194.104 45.4397 193.071 36.911 191.185 37.8034C190.529 38.1112 189.958 39.4169 189.547 40.0016L187.855 42.4942L184.458 47.4268Z" fill="#3F3D56"/>
<path d="M133.82 102.446L120.209 113.96L102.698 110.706L114.489 101.087L133.82 102.446Z" fill="#E3E8F4"/>
<path opacity="0.1" d="M134.31 101.729L120.7 113.243L103.188 109.99L114.98 100.371L134.31 101.729Z" fill="black"/>
<path d="M134.213 101.118L120.603 112.627L103.087 109.379L114.883 99.7552L134.213 101.118Z" fill="#E3E8F4"/>
<path opacity="0.1" d="M134.607 99.7859L120.992 111.3L103.481 108.047L115.276 98.4275L134.607 99.7859Z" fill="black"/>
<path d="M134.505 99.175L120.895 110.689L103.383 107.436L115.175 97.8165L134.505 99.175Z" fill="#E3E8F4"/>
<path d="M313.539 256.495C313.86 256.332 314.214 256.254 314.571 256.267C314.927 256.279 315.276 256.382 315.586 256.566C315.895 256.75 316.157 257.01 316.348 257.323C316.539 257.636 316.654 257.993 316.682 258.363L317.439 268.567L312.946 269.411L310.577 262.034L313.539 256.495Z" fill="#3F3D56"/>
<path d="M156.344 188.102L87.5815 224.362C86.7929 224.781 86.1314 225.418 85.6705 226.203C85.2096 226.989 84.9675 227.891 84.971 228.811C84.9745 229.731 85.2235 230.632 85.6904 231.414C86.1572 232.195 86.8236 232.827 87.6154 233.239L235.714 310.467C238.349 311.839 241.267 312.516 244.213 312.439C247.159 312.362 250.042 311.534 252.607 310.028L314.986 273.477C315.743 273.029 316.367 272.374 316.792 271.583C317.217 270.793 317.426 269.897 317.397 268.992C317.368 268.087 317.101 267.208 316.626 266.449C316.152 265.69 315.486 265.08 314.702 264.685L160.571 188.054C159.91 187.725 159.185 187.558 158.452 187.567C157.719 187.575 156.998 187.758 156.344 188.102Z" fill="#3F3D56"/>
<path d="M87.1204 218.054L84.9669 219.716L84.7977 227.673C84.7841 228.293 84.9387 228.905 85.244 229.438C85.5492 229.972 85.9928 230.405 86.5239 230.689L237.152 311.008C237.494 311.191 237.875 311.28 238.26 311.266C238.644 311.252 239.019 311.135 239.347 310.927C239.675 310.719 239.947 310.427 240.135 310.079C240.324 309.73 240.423 309.337 240.423 308.938V297.38L87.1204 218.054Z" fill="#3F3D56"/>
<path d="M156.344 178.879L87.5812 215.135C86.7921 215.552 86.1296 216.188 85.6676 216.973C85.2056 217.757 84.9622 218.66 84.9644 219.58C84.9666 220.5 85.2143 221.401 85.68 222.183C86.1458 222.965 86.8112 223.598 87.6024 224.011L235.713 301.24C238.349 302.61 241.267 303.286 244.213 303.21C247.159 303.133 250.041 302.306 252.607 300.8L314.986 264.245C315.742 263.797 316.367 263.142 316.792 262.351C317.217 261.561 317.426 260.665 317.397 259.76C317.367 258.855 317.101 257.976 316.626 257.217C316.151 256.458 315.486 255.848 314.702 255.453L160.571 178.826C159.909 178.498 159.184 178.332 158.451 178.341C157.719 178.351 156.998 178.535 156.344 178.879Z" fill="#E3E8F4"/>
<path d="M170.576 185.46L94.8118 225.435L225.031 293.094L303.165 251.883L170.576 185.46Z" fill="#3F3D56"/>
<path d="M272.682 280.793C277.096 280.793 280.674 278.59 280.674 275.873C280.674 273.156 277.096 270.954 272.682 270.954C268.268 270.954 264.69 273.156 264.69 275.873C264.69 278.59 268.268 280.793 272.682 280.793Z" fill="#3F3D56"/>
<path d="M126.923 198.992C127.332 198.992 127.664 198.647 127.664 198.222C127.664 197.798 127.332 197.453 126.923 197.453C126.514 197.453 126.183 197.798 126.183 198.222C126.183 198.647 126.514 198.992 126.923 198.992Z" fill="#3F3D56"/>
<path d="M124.706 205.142C125.197 205.142 125.595 204.729 125.595 204.219C125.595 203.709 125.197 203.296 124.706 203.296C124.216 203.296 123.818 203.709 123.818 204.219C123.818 204.729 124.216 205.142 124.706 205.142Z" fill="#3F3D56"/>
<path d="M127.96 202.68L136.84 198.376" stroke="#3F3D56" stroke-miterlimit="10"/>
<path d="M206.627 222.691L181.559 237.731C177.916 239.916 176.668 244.756 178.771 248.54C180.874 252.325 185.532 253.622 189.174 251.437L214.243 236.397C217.885 234.212 219.133 229.372 217.03 225.588C214.927 221.803 210.27 220.506 206.627 222.691Z" fill="#6C63FF"/>
<path d="M229.05 234.562L203.981 249.602C200.339 251.787 199.091 256.627 201.194 260.411C203.297 264.196 207.954 265.493 211.597 263.308L236.666 248.268C240.308 246.083 241.556 241.243 239.453 237.459C237.35 233.674 232.693 232.377 229.05 234.562Z" fill="#6C63FF"/>
<path d="M186.32 209.064L161.251 224.104C157.609 226.289 156.361 231.129 158.464 234.913C160.567 238.698 165.224 239.995 168.867 237.81L193.936 222.77C197.578 220.585 198.826 215.745 196.723 211.961C194.62 208.176 189.963 206.879 186.32 209.064Z" fill="#6C63FF"/>
</g>
<defs>
<clipPath id="clip0_7_79">
<rect width="391" height="360" fill="white"/>
</clipPath>
</defs>
</svg>
